<?xml version="1.0" encoding="utf-8"?>
<svg version="1.1" id="Layer_1" xmlns="http://www.w3.org/2000/svg" xmlns:xlink="http://www.w3.org/1999/xlink" x="0px" y="0px"
	 viewBox="0 0 20 20" style="enable-background:new 0 0 20 20;" xml:space="preserve">
<style type="text/css">
	.st0{fill:#E0922E;}
</style>
<title>star</title>
<path class="st0" d="M19.3,7.9c-0.1-0.2-0.2-0.3-0.4-0.4l-5.8-0.8l-2.6-5.2c-0.1-0.2-0.3-0.3-0.5-0.3S9.6,1.2,9.5,1.4L6.9,6.6
	L1.1,7.5c-0.2,0-0.4,0.2-0.4,0.4s0,0.4,0.1,0.6L5,12.5l-1,5.8c0,0.2,0,0.4,0.2,0.5c0.1,0.1,0.2,0.1,0.3,0.1c0.1,0,0.2,0,0.3-0.1
	l5.2-2.7l5.2,2.7c0.2,0.1,0.4,0.1,0.6,0s0.3-0.3,0.2-0.5l-1-5.8l4.2-4.1C19.3,8.3,19.4,8.1,19.3,7.9L19.3,7.9z"/>
</svg>
